<svg width="22" height="22" viewBox="0 0 22 22" fill="none" xmlns="http://www.w3.org/2000/svg">
<path d="M7 18.4667C5.339 20.0378 3.82 21 1 21C2 19.8889 3.27 18.3889 3.801 16.0589C2.067 14.46 1 12.2856 1 9.88889C1 4.98 5.477 1 11 1C16.1 1 20.308 4.39333 20.923 8.77778" stroke="#5F6388" stroke-width="1.5" stroke-linecap="round" stroke-linejoin="round"/>
<path d="M15 19.7653C11.686 19.7653 9 17.5542 9 14.8264C9 12.0998 11.686 9.88867 15 9.88867C18.314 9.88867 21 12.0998 21 14.8264C21 16.1587 20.36 17.3664 19.32 18.2542C19.637 19.5487 20.4 20.382 21 20.9998C19.2 20.9998 18.284 20.3953 17.208 19.4198C16.524 19.642 15.78 19.7642 15 19.7642V19.7653Z" fill="#5F6388" stroke="#5F6388" stroke-width="1.5" stroke-linecap="round" stroke-linejoin="round"/>
</svg>
