<svg width="20" height="20" viewBox="0 0 20 20" fill="none" xmlns="http://www.w3.org/2000/svg">
<path d="M19.6636 17.4172C19.2793 16.9622 14.6225 14.7961 13.7775 14.3875C12.9369 13.986 12.6016 12.8735 12.6016 12.8735C12.6016 12.8735 12.2232 13.1251 12.2232 12.4185C12.2232 11.711 12.6016 12.8735 12.98 10.1453C12.98 10.1453 14.0297 9.79113 13.8213 6.8622H13.569C13.569 6.8622 14.1996 3.73075 13.569 2.67088C12.9362 1.611 12.6884 0.904418 11.2988 0.397677C9.91152 -0.108172 10.416 -0.00735899 9.40852 0.0443857C8.39956 0.0952383 7.55974 0.751861 7.55974 1.10426C7.55974 1.10426 6.92914 1.15511 6.67838 1.45844C6.42614 1.76177 6.00623 3.17494 6.00623 3.52823C6.00623 3.88152 6.21619 6.25821 6.42614 6.76138L6.17613 6.85952C5.96617 9.78934 7.01594 10.1444 7.01594 10.1444C7.3943 12.8726 7.77266 11.7101 7.77266 12.4176C7.77266 13.1242 7.3943 12.8726 7.3943 12.8726C7.3943 12.8726 7.05823 13.9842 6.21841 14.3866C5.3786 14.7907 0.716589 16.9622 0.337486 17.4163C-0.040876 17.8803 0.0014114 20 0.0014114 20H8.93075L9.58212 16.9132L9.00345 16.2173L9.9998 15.0173L10.9962 16.2164L10.4175 16.9123L11.0689 19.9991H19.9982C19.9982 19.9991 20.0449 17.8776 19.6621 17.4145L19.6636 17.4172Z" fill="#5F6388"/>
</svg>
