<svg width="20" height="20" viewBox="0 0 20 20" fill="none" xmlns="http://www.w3.org/2000/svg">
<path d="M2.83214 18V18.025H2.85714H17.1457H17.1707L17.1707 18L17.1679 2L17.1679 1.975H17.1429H2.85714H2.83214V2V18ZM2.85714 0.025H17.1429C17.9262 0.025 18.6353 0.248006 19.148 0.606856C19.6607 0.96577 19.975 1.45892 19.975 2V18C19.975 18.5411 19.6607 19.0342 19.148 19.3931C18.6353 19.752 17.9262 19.975 17.1429 19.975H2.85714C2.0738 19.975 1.36466 19.752 0.852015 19.3931C0.339281 19.0342 0.025 18.5411 0.025 18V2C0.025 1.45892 0.339281 0.96577 0.852015 0.606856C1.36466 0.248006 2.0738 0.025 2.85714 0.025Z" fill="#5F6388" stroke="#5F6388" stroke-width="0.05"/>
<path d="M9.99998 17C10.789 17 11.4286 16.5523 11.4286 16C11.4286 15.4477 10.789 15 9.99998 15C9.211 15 8.57141 15.4477 8.57141 16C8.57141 16.5523 9.211 17 9.99998 17Z" fill="#5F6388"/>
</svg>
