<svg width="20" height="20" viewBox="0 0 20 20" fill="none" xmlns="http://www.w3.org/2000/svg">
<path d="M12.754 7.77778C13.72 7.77778 14.504 8.64889 14.504 9.72222V14.9989C14.504 16.3253 14.0298 17.5973 13.1857 18.5352C12.3416 19.4731 11.1967 20 10.003 20C8.80926 20 7.66441 19.4731 6.82031 18.5352C5.97621 17.5973 5.502 16.3253 5.502 14.9989V9.72222C5.502 8.64889 6.285 7.77778 7.252 7.77778H12.754ZM5.131 7.77778C4.77082 8.25939 4.55417 8.85343 4.511 9.47778L4.501 9.72222V14.9989C4.501 15.94 4.693 16.8311 5.035 17.6267C4.44228 17.8029 3.82103 17.8252 3.21929 17.692C2.61756 17.5588 2.05145 17.2736 1.56475 16.8585C1.07805 16.4434 0.683789 15.9095 0.412463 15.298C0.141138 14.6866 1.22998e-05 14.014 0 13.3322V9.72222C1.64046e-05 9.23423 0.165171 8.76409 0.46268 8.40512C0.760189 8.04615 1.1683 7.8246 1.606 7.78444L1.75 7.77778H5.131ZM14.875 7.77778H18.25C19.216 7.77778 20 8.64889 20 9.72222V13.3333C20.0001 14.0146 19.8593 14.6868 19.5884 15.298C19.3175 15.9092 18.9237 16.443 18.4376 16.8582C17.9514 17.2734 17.3858 17.5588 16.7846 17.6924C16.1833 17.8261 15.5625 17.8043 14.97 17.6289C15.27 16.9311 15.454 16.1622 15.495 15.3489L15.504 14.9989V9.72222C15.504 8.98333 15.268 8.30556 14.874 7.77778H14.875ZM10 0C10.7956 0 11.5587 0.35119 12.1213 0.976311C12.6839 1.60143 13 2.44928 13 3.33333C13 4.21739 12.6839 5.06524 12.1213 5.69036C11.5587 6.31548 10.7956 6.66667 10 6.66667C9.20435 6.66667 8.44129 6.31548 7.87868 5.69036C7.31607 5.06524 7 4.21739 7 3.33333C7 2.44928 7.31607 1.60143 7.87868 0.976311C8.44129 0.35119 9.20435 0 10 0ZM16.5 1.11111C17.163 1.11111 17.7989 1.40377 18.2678 1.9247C18.7366 2.44564 19 3.15218 19 3.88889C19 4.6256 18.7366 5.33214 18.2678 5.85307C17.7989 6.37401 17.163 6.66667 16.5 6.66667C15.837 6.66667 15.2011 6.37401 14.7322 5.85307C14.2634 5.33214 14 4.6256 14 3.88889C14 3.15218 14.2634 2.44564 14.7322 1.9247C15.2011 1.40377 15.837 1.11111 16.5 1.11111ZM3.5 1.11111C4.16304 1.11111 4.79893 1.40377 5.26777 1.9247C5.73661 2.44564 6 3.15218 6 3.88889C6 4.6256 5.73661 5.33214 5.26777 5.85307C4.79893 6.37401 4.16304 6.66667 3.5 6.66667C2.83696 6.66667 2.20107 6.37401 1.73223 5.85307C1.26339 5.33214 1 4.6256 1 3.88889C1 3.15218 1.26339 2.44564 1.73223 1.9247C2.20107 1.40377 2.83696 1.11111 3.5 1.11111Z" fill="#5F6388"/>
</svg>
