<svg width="22" height="22" viewBox="0 0 22 22" fill="none" xmlns="http://www.w3.org/2000/svg">
<path d="M15.6998 18.073C14.4606 19.9472 12.7803 21 11.0282 21C9.27617 21 7.59583 19.9472 6.35659 18.073L1 9.99844L3.32427 6.45029C3.59043 6.05107 3.95002 5.8271 4.32478 5.8271C4.69954 5.8271 5.05913 6.05107 5.3253 6.45029L9.68651 13.0186C9.91785 13.3845 10.2094 13.6505 10.5313 13.7892C10.8531 13.9279 11.1936 13.9343 11.5176 13.8078C11.8416 13.6812 12.1375 13.4263 12.3748 13.0693C12.612 12.7122 12.7822 12.266 12.8676 11.7764L16.3463 17.0326C16.1463 17.4007 15.9303 17.7483 15.6998 18.073ZM18.7168 15.5497C18.4506 15.9489 18.091 16.1729 17.7163 16.1729C17.3415 16.1729 16.9819 15.9489 16.7158 15.5497L12.3597 8.98136C12.1266 8.61566 11.8331 8.35093 11.5097 8.21459C11.1862 8.07825 10.8446 8.07526 10.5201 8.20593C10.1956 8.33659 9.90014 8.59616 9.66426 8.95775C9.42839 9.31933 9.26069 9.76978 9.17855 10.2624L5.69985 5.01394C5.88966 4.63226 6.09531 4.26921 6.31555 3.92698C7.55478 2.05281 9.23512 1 10.9872 1C12.7392 1 14.4196 2.05281 15.6588 3.92698L21 12.0016L18.7168 15.5497Z" stroke="#5F6388" stroke-width="2" stroke-linecap="round" stroke-linejoin="round"/>
</svg>
